<mxfile host="65bd71144e">
    <diagram id="Fik9ctgtMvHE4fjPfura" name="Page-1">
        <mxGraphModel dx="1572" dy="642" grid="1" gridSize="10" guides="1" tooltips="1" connect="1" arrows="1" fold="1" page="1" pageScale="1" pageWidth="850" pageHeight="1100" background="#ffffff" math="0" shadow="0">
            <root>
                <mxCell id="0"/>
                <mxCell id="1" parent="0"/>
                <mxCell id="2" value="Операция" style="rounded=0;whiteSpace=wrap;html=1;fillColor=#66FFFF;strokeColor=#000000;strokeWidth=2;fontSize=18;fontStyle=1;fontColor=#000000;" parent="1" vertex="1">
                    <mxGeometry x="170" y="80" width="390" height="60" as="geometry"/>
                </mxCell>
                <mxCell id="3" value="търсене на елемент" style="rounded=0;whiteSpace=wrap;html=1;fillColor=#C4FDFF;strokeColor=#000000;strokeWidth=2;fontSize=18;fontStyle=1;fontColor=#000000;" parent="1" vertex="1">
                    <mxGeometry x="170" y="140" width="130" height="60" as="geometry"/>
                </mxCell>
                <mxCell id="4" value="добавяне на елемент" style="rounded=0;whiteSpace=wrap;html=1;fillColor=#C4FDFF;strokeColor=#000000;strokeWidth=2;fontSize=18;fontStyle=1;fontColor=#000000;" parent="1" vertex="1">
                    <mxGeometry x="300" y="140" width="130" height="60" as="geometry"/>
                </mxCell>
                <mxCell id="5" value="премахване на елемент" style="rounded=0;whiteSpace=wrap;html=1;fillColor=#C4FDFF;strokeColor=#000000;strokeWidth=2;fontSize=18;fontStyle=1;fontColor=#000000;" parent="1" vertex="1">
                    <mxGeometry x="430" y="140" width="130" height="60" as="geometry"/>
                </mxCell>
                <mxCell id="6" value="&lt;span style=&quot;font-size: 17px;&quot;&gt;Среден&lt;/span&gt;" style="rounded=0;whiteSpace=wrap;html=1;fillColor=#C4FDFF;strokeColor=#000000;strokeWidth=2;fontSize=17;fontStyle=1;fontColor=#000000;" parent="1" vertex="1">
                    <mxGeometry x="30" y="200" width="140" height="60" as="geometry"/>
                </mxCell>
                <mxCell id="7" value="&lt;span style=&quot;font-size: 17px;&quot;&gt;Θ(1)&lt;/span&gt;" style="rounded=0;whiteSpace=wrap;html=1;fillColor=#FFFFFF;strokeColor=#000000;strokeWidth=2;fontSize=17;fontStyle=1;fontColor=#000000;" parent="1" vertex="1">
                    <mxGeometry x="170" y="200" width="130" height="60" as="geometry"/>
                </mxCell>
                <mxCell id="8" value="&lt;span style=&quot;font-size: 17px;&quot;&gt;Θ(1)&lt;/span&gt;" style="rounded=0;whiteSpace=wrap;html=1;fillColor=#FFFFFF;strokeColor=#000000;strokeWidth=2;fontSize=17;fontStyle=1;fontColor=#000000;" parent="1" vertex="1">
                    <mxGeometry x="300" y="200" width="130" height="60" as="geometry"/>
                </mxCell>
                <mxCell id="9" value="&lt;span style=&quot;font-size: 17px;&quot;&gt;Θ(1)&lt;/span&gt;" style="rounded=0;whiteSpace=wrap;html=1;fillColor=#FFFFFF;strokeColor=#000000;strokeWidth=2;fontSize=17;fontStyle=1;fontColor=#000000;" parent="1" vertex="1">
                    <mxGeometry x="430" y="200" width="130" height="60" as="geometry"/>
                </mxCell>
                <mxCell id="12" value="&lt;span style=&quot;font-size: 17px;&quot;&gt;Най-лош&lt;/span&gt;" style="rounded=0;whiteSpace=wrap;html=1;fillColor=#C4FDFF;strokeColor=#000000;strokeWidth=2;fontSize=17;fontStyle=1;fontColor=#000000;" parent="1" vertex="1">
                    <mxGeometry x="30" y="260" width="140" height="60" as="geometry"/>
                </mxCell>
                <mxCell id="13" value="Θ(N)" style="rounded=0;whiteSpace=wrap;html=1;fillColor=#FFFFFF;strokeColor=#000000;strokeWidth=2;fontSize=17;fontStyle=1;fontColor=#000000;" parent="1" vertex="1">
                    <mxGeometry x="170" y="260" width="130" height="60" as="geometry"/>
                </mxCell>
                <mxCell id="14" value="Θ(N)" style="rounded=0;whiteSpace=wrap;html=1;fillColor=#FFFFFF;strokeColor=#000000;strokeWidth=2;fontSize=17;fontStyle=1;fontColor=#000000;" parent="1" vertex="1">
                    <mxGeometry x="300" y="260" width="130" height="60" as="geometry"/>
                </mxCell>
                <mxCell id="15" value="Θ(N)" style="rounded=0;whiteSpace=wrap;html=1;fillColor=#FFFFFF;strokeColor=#000000;strokeWidth=2;fontSize=17;fontStyle=1;fontColor=#000000;" parent="1" vertex="1">
                    <mxGeometry x="430" y="260" width="130" height="60" as="geometry"/>
                </mxCell>
                <mxCell id="18" value="Случай" style="rounded=0;whiteSpace=wrap;html=1;fillColor=#66FFFF;strokeColor=#000000;strokeWidth=2;fontSize=17;fontStyle=1;fontColor=#000000;" parent="1" vertex="1">
                    <mxGeometry x="30" y="80" width="140" height="120" as="geometry"/>
                </mxCell>
                <mxCell id="19" value="Text" style="text;html=1;strokeColor=none;fillColor=none;align=center;verticalAlign=middle;whiteSpace=wrap;rounded=0;" vertex="1" parent="1">
                    <mxGeometry x="260" y="40" width="60" height="30" as="geometry"/>
                </mxCell>
                <mxCell id="20" value="Text" style="text;html=1;strokeColor=none;fillColor=none;align=center;verticalAlign=middle;whiteSpace=wrap;rounded=0;" vertex="1" parent="1">
                    <mxGeometry x="260" y="330" width="60" height="30" as="geometry"/>
                </mxCell>
                <mxCell id="21" value="Text" style="text;html=1;strokeColor=none;fillColor=none;align=center;verticalAlign=middle;whiteSpace=wrap;rounded=0;" vertex="1" parent="1">
                    <mxGeometry x="570" y="190" width="60" height="30" as="geometry"/>
                </mxCell>
                <mxCell id="22" value="Text" style="text;html=1;strokeColor=none;fillColor=none;align=center;verticalAlign=middle;whiteSpace=wrap;rounded=0;" vertex="1" parent="1">
                    <mxGeometry x="-40" y="200" width="60" height="30" as="geometry"/>
                </mxCell>
            </root>
        </mxGraphModel>
    </diagram>
</mxfile>